<svg xmlns="http://www.w3.org/2000/svg" viewBox="0 0 64 64"><defs><style>.cls-1{isolation:isolate;}.cls-2{mix-blend-mode:multiply;}.cls-3{fill:#f5f1e0;}.cls-4{fill:#f4cd51;}.cls-5{fill:#ea6e60;}.cls-6{fill:none;stroke:#3b342f;stroke-linecap:round;stroke-linejoin:round;stroke-width:2px;}</style></defs><title>home</title><g class="cls-1"><g id="icons" class="cls-2"><g id="_Group_" data-name="&lt;Group&gt;"><polygon class="cls-3" points="53 12 53 26.5 45 17.93 45 12 53 12"/><polygon class="cls-4" points="60 34 60 40 55 34.64 32 10 9 34.64 4 40 4 34 32 4 45 17.93 53 26.5 60 34"/><polygon class="cls-5" points="39 54 39 60 25 60 25 54 25 36 39 36 39 54"/><rect class="cls-4" x="39" y="54" width="16" height="6"/><rect class="cls-4" x="9" y="54" width="16" height="6"/><polygon class="cls-3" points="55 34.64 55 54 39 54 39 36 25 36 25 54 9 54 9 34.64 32 10 55 34.64"/><polyline class="cls-6" points="25 60 9 60 9 54 9 34.64"/><polyline class="cls-6" points="55 34.64 55 54 55 60 39 60"/><polygon class="cls-6" points="45 17.93 32 4 4 34 4 40 9 34.64 32 10 55 34.64 60 40 60 34 53 26.5 45 17.93"/><polygon class="cls-6" points="39 60 25 60 25 54 25 36 39 36 39 54 39 60"/><polyline class="cls-6" points="45 17.93 45 12 53 12 53 26.5"/><line class="cls-6" x1="39" y1="54" x2="55" y2="54"/><line class="cls-6" x1="9" y1="54" x2="25" y2="54"/></g></g></g></svg>